<mxfile host="app.diagrams.net" modified="2024-03-04T23:36:49.218Z" agent="Mozilla/5.0 (Windows NT 10.0; Win64; x64; rv:123.0) Gecko/20100101 Firefox/123.0" version="21.2.1" etag="0Gx10P0mtr2ll8FSpRri" type="github">
  <diagram name="Page-1" id="ToANJIGu34HC7c5-Z4KE">
    <mxGraphModel>
      <root>
        <mxCell id="0" />
        <mxCell id="1" parent="0" />
      </root>
    </mxGraphModel>
  </diagram>
</mxfile>
